{
  "accessors": [
    {
      "bufferView": 2,
      "componentType": 5126,
      "count": 37578,
      "max": [
        7.552921295166016,
        15.35267448425293,
        8.00272274017334
      ],
      "min": [
        -6.791193008422852,
        -0.4069530963897705,
        -6.498060703277588
      ],
      "type": "VEC3"
    },
    {
      "bufferView": 2,
      "byteOffset": 450936,
      "componentType": 5126,
      "count": 37578,
      "max": [
        0.999976634979248,
        1.0,
        0.9989028573036194
      ],
      "min": [
        -0.9999355673789978,
        -1.0,
        -0.9997987747192383
      ],
      "type": "VEC3"
    },
    {
      "bufferView": 1,
      "componentType": 5126,
      "count": 37578,
      "max": [
        0.9385479092597961,
        0.9921965599060059
      ],
      "min": [
        0.0004871077835559845,
        0.004339955281466246
      ],
      "type": "VEC2"
    },
    {
      "bufferView": 1,
      "byteOffset": 300624,
      "componentType": 5126,
      "count": 37578,
      "max": [
        0.9949829578399658,
        0.9989989995956421
      ],
      "min": [
        0.0010010009864345193,
        0.0010010009864345193
      ],
      "type": "VEC2"
    },
    {
      "bufferView": 0,
      "componentType": 5125,
      "count": 53352,
      "type": "SCALAR"
    },
    {
      "bufferView": 2,
      "byteOffset": 901872,
      "componentType": 5126,
      "count": 4722,
      "max": [
        7.950103282928467,
        3.6848747730255127,
        8.991076469421387
      ],
      "min": [
        -9.543493270874023,
        -1.4858570098876953,
        -4.590012550354004
      ],
      "type": "VEC3"
    },
    {
      "bufferView": 2,
      "byteOffset": 958536,
      "componentType": 5126,
      "count": 4722,
      "max": [
        0.9979907274246216,
        0.9997628331184387,
        0.9998927712440491
      ],
      "min": [
        -0.9967893958091736,
        -0.9994401931762695,
        -0.9992709159851074
      ],
      "type": "VEC3"
    },
    {
      "bufferView": 1,
      "byteOffset": 601248,
      "componentType": 5126,
      "count": 4722,
      "max": [
        0.9778420329093933,
        0.9701869487762451
      ],
      "min": [
        0.34378814697265625,
        0.4781959056854248
      ],
      "type": "VEC2"
    },
    {
      "bufferView": 1,
      "byteOffset": 639024,
      "componentType": 5126,
      "count": 4722,
      "max": [
        0.9628544449806213,
        0.9658694863319397
      ],
      "min": [
        0.0010010009864345193,
        0.0010010009864345193
      ],
      "type": "VEC2"
    },
    {
      "bufferView": 0,
      "byteOffset": 213408,
      "componentType": 5125,
      "count": 4722,
      "type": "SCALAR"
    },
    {
      "bufferView": 2,
      "byteOffset": 1015200,
      "componentType": 5126,
      "count": 5270,
      "max": [
        8.01392650604248,
        3.886600971221924,
        9.531950950622559
      ],
      "min": [
        -8.91604232788086,
        -0.4269375801086426,
        -5.10287618637085
      ],
      "type": "VEC3"
    },
    {
      "bufferView": 2,
      "byteOffset": 1078440,
      "componentType": 5126,
      "count": 5270,
      "max": [
        0.99302738904953,
        0.999975860118866,
        0.9982830882072449
      ],
      "min": [
        -0.9903850555419922,
        -0.9252402186393738,
        -0.9995914101600647
      ],
      "type": "VEC3"
    },
    {
      "bufferView": 1,
      "byteOffset": 676800,
      "componentType": 5126,
      "count": 5270,
      "max": [
        0.9695655107498169,
        0.4606803357601166
      ],
      "min": [
        0.452714204788208,
        0.017492294311523438
      ],
      "type": "VEC2"
    },
    {
      "bufferView": 1,
      "byteOffset": 718960,
      "componentType": 5126,
      "count": 5270,
      "max": [
        0.9467901587486267,
        0.950806200504303
      ],
      "min": [
        0.0010010009864345193,
        0.0010010009864345193
      ],
      "type": "VEC2"
    },
    {
      "bufferView": 0,
      "byteOffset": 232296,
      "componentType": 5125,
      "count": 7608,
      "type": "SCALAR"
    },
    {
      "bufferView": 2,
      "byteOffset": 1141680,
      "componentType": 5126,
      "count": 450,
      "max": [
        8.311978340148926,
        2.2219979763031006,
        9.697037696838379
      ],
      "min": [
        -8.316338539123535,
        -1.2001712322235107,
        -5.352554798126221
      ],
      "type": "VEC3"
    },
    {
      "bufferView": 2,
      "byteOffset": 1147080,
      "componentType": 5126,
      "count": 450,
      "max": [
        0.999306857585907,
        1.0,
        0.9941408038139343
      ],
      "min": [
        -0.9862503409385681,
        -1.0,
        -0.9988985061645508
      ],
      "type": "VEC3"
    },
    {
      "bufferView": 1,
      "byteOffset": 761120,
      "componentType": 5126,
      "count": 450,
      "max": [
        0.7164385318756104,
        0.9839521646499634
      ],
      "min": [
        0.03313180431723595,
        0.26476117968559265
      ],
      "type": "VEC2"
    },
    {
      "bufferView": 1,
      "byteOffset": 764720,
      "componentType": 5126,
      "count": 450,
      "max": [
        0.9347419738769531,
        0.8785170912742615
      ],
      "min": [
        0.0010010009864345193,
        0.0010010009864345193
      ],
      "type": "VEC2"
    },
    {
      "bufferView": 0,
      "byteOffset": 262728,
      "componentType": 5125,
      "count": 642,
      "type": "SCALAR"
    },
    {
      "bufferView": 2,
      "byteOffset": 1152480,
      "componentType": 5126,
      "count": 1890,
      "max": [
        6.292725563049316,
        6.513381481170654,
        5.599113941192627
      ],
      "min": [
        -3.475912570953369,
        1.4811888933181763,
        -3.9750571250915527
      ],
      "type": "VEC3"
    },
    {
      "bufferView": 2,
      "byteOffset": 1175160,
      "componentType": 5126,
      "count": 1890,
      "max": [
        0.9926549196243286,
        0.9990614652633667,
        0.9989129900932312
      ],
      "min": [
        -0.9920163154602051,
        -0.999100387096405,
        -0.9977927803993225
      ],
      "type": "VEC3"
    },
    {
      "bufferView": 1,
      "byteOffset": 768320,
      "componentType": 5126,
      "count": 1890,
      "max": [
        0.791523814201355,
        0.8860506415367126
      ],
      "min": [
        0.7284384369850159,
        0.17909827828407288
      ],
      "type": "VEC2"
    },
    {
      "bufferView": 1,
      "byteOffset": 783440,
      "componentType": 5126,
      "count": 1890,
      "max": [
        0.9427741169929504,
        0.9427741169929504
      ],
      "min": [
        0.0170652586966753,
        0.0170652586966753
      ],
      "type": "VEC2"
    },
    {
      "bufferView": 0,
      "byteOffset": 265296,
      "componentType": 5125,
      "count": 2730,
      "type": "SCALAR"
    },
    {
      "bufferView": 2,
      "byteOffset": 1197840,
      "componentType": 5126,
      "count": 1776,
      "max": [
        0.502737283706665,
        3.059314012527466,
        1.8526496887207031
      ],
      "min": [
        -8.848967552185059,
        -0.14546312391757965,
        -3.686880588531494
      ],
      "type": "VEC3"
    },
    {
      "bufferView": 2,
      "byteOffset": 1219152,
      "componentType": 5126,
      "count": 1776,
      "max": [
        0.9924421906471252,
        0.9990578293800354,
        0.9933160543441772
      ],
      "min": [
        -0.9960281252861023,
        -0.9774590134620667,
        -0.9946190714836121
      ],
      "type": "VEC3"
    },
    {
      "bufferView": 1,
      "byteOffset": 798560,
      "componentType": 5126,
      "count": 1776,
      "max": [
        0.577120304107666,
        0.743047297000885
      ],
      "min": [
        0.34378814697265625,
        0.5051552653312683
      ],
      "type": "VEC2"
    },
    {
      "bufferView": 1,
      "byteOffset": 812768,
      "componentType": 5126,
      "count": 1776,
      "max": [
        0.950806200504303,
        0.954822301864624
      ],
      "min": [
        0.0020020019728690386,
        0.0010010009864345193
      ],
      "type": "VEC2"
    },
    {
      "bufferView": 0,
      "byteOffset": 276216,
      "componentType": 5125,
      "count": 1776,
      "type": "SCALAR"
    },
    {
      "bufferView": 2,
      "byteOffset": 1240464,
      "componentType": 5126,
      "count": 1136,
      "max": [
        -4.278508186340332,
        3.601411819458008,
        3.871511220932007
      ],
      "min": [
        -6.018982887268066,
        3.032200813293457,
        2.5365381240844727
      ],
      "type": "VEC3"
    },
    {
      "bufferView": 2,
      "byteOffset": 1254096,
      "componentType": 5126,
      "count": 1136,
      "max": [
        0.9997632503509521,
        0.9980436563491821,
        0.9997845888137817
      ],
      "min": [
        -0.9990279078483582,
        -0.9999394416809082,
        -0.9881996512413025
      ],
      "type": "VEC3"
    },
    {
      "bufferView": 1,
      "byteOffset": 826976,
      "componentType": 5126,
      "count": 1136,
      "max": [
        0.8803147673606873,
        0.46393901109695435
      ],
      "min": [
        0.3582495450973511,
        0.17499782145023346
      ],
      "type": "VEC2"
    },
    {
      "bufferView": 1,
      "byteOffset": 836064,
      "componentType": 5126,
      "count": 1136,
      "max": [
        0.6897620558738708,
        0.8383564352989197
      ],
      "min": [
        0.04919377341866493,
        0.5793142318725586
      ],
      "type": "VEC2"
    },
    {
      "bufferView": 0,
      "byteOffset": 283320,
      "componentType": 5125,
      "count": 1632,
      "type": "SCALAR"
    },
    {
      "bufferView": 2,
      "byteOffset": 1267728,
      "componentType": 5126,
      "count": 1704,
      "max": [
        7.3143463134765625,
        8.538734436035156,
        7.321232795715332
      ],
      "min": [
        -4.996668815612793,
        -0.37268996238708496,
        -5.529520034790039
      ],
      "type": "VEC3"
    },
    {
      "bufferView": 2,
      "byteOffset": 1288176,
      "componentType": 5126,
      "count": 1704,
      "max": [
        0.9950202107429504,
        0.9937847852706909,
        0.9966170787811279
      ],
      "min": [
        -0.9945623874664307,
        -0.9999988079071045,
        -0.999009907245636
      ],
      "type": "VEC3"
    },
    {
      "bufferView": 1,
      "byteOffset": 845152,
      "componentType": 5126,
      "count": 1704,
      "max": [
        0.9964030385017395,
        0.9958676099777222
      ],
      "min": [
        0.3292387127876282,
        0.11353355646133423
      ],
      "type": "VEC2"
    },
    {
      "bufferView": 1,
      "byteOffset": 858784,
      "componentType": 5126,
      "count": 1704,
      "max": [
        0.9989989995956421,
        0.9989989995956421
      ],
      "min": [
        0.0010010009864345193,
        0.0010010009864345193
      ],
      "type": "VEC2"
    },
    {
      "bufferView": 0,
      "byteOffset": 289848,
      "componentType": 5125,
      "count": 2508,
      "type": "SCALAR"
    },
    {
      "bufferView": 2,
      "byteOffset": 1308624,
      "componentType": 5126,
      "count": 2505,
      "max": [
        3.224135398864746,
        11.973072052001953,
        2.7458674907684326
      ],
      "min": [
        -2.2605843544006348,
        6.889155387878418,
        -3.1667850017547607
      ],
      "type": "VEC3"
    },
    {
      "bufferView": 2,
      "byteOffset": 1338684,
      "componentType": 5126,
      "count": 2505,
      "max": [
        0.9994467496871948,
        0.968548595905304,
        0.9749488830566406
      ],
      "min": [
        -0.9977275729179382,
        -0.8388960361480713,
        -0.9908203482627869
      ],
      "type": "VEC3"
    },
    {
      "bufferView": 1,
      "byteOffset": 872416,
      "componentType": 5126,
      "count": 2505,
      "max": [
        0.3172122836112976,
        0.9826400876045227
      ],
      "min": [
        0.008251738734543324,
        0.7277438044548035
      ],
      "type": "VEC2"
    },
    {
      "bufferView": 1,
      "byteOffset": 892456,
      "componentType": 5126,
      "count": 2505,
      "max": [
        0.9949829578399658,
        0.9708865284919739
      ],
      "min": [
        0.0010010009864345193,
        0.0010010009864345193
      ],
      "type": "VEC2"
    },
    {
      "bufferView": 0,
      "byteOffset": 299880,
      "componentType": 5125,
      "count": 3537,
      "type": "SCALAR"
    }
  ],
  "asset": {
    "extras": {
      "author": "Mikkel Garde Blaase (https://sketchfab.com/plorigon)",
      "license": "CC-BY-NC-4.0 (http://creativecommons.org/licenses/by-nc/4.0/)",
      "source": "https://sketchfab.com/3d-models/the-ham-dae-villages-stylized-viking-butcher-36783848b1d643d587df9976ee207281",
      "title": "\"The Ham.\" DAE Villages Stylized Viking Butcher"
    },
    "generator": "Sketchfab-15.12.0",
    "version": "2.0"
  },
  "bufferViews": [
    {
      "buffer": 0,
      "byteLength": 314028,
      "name": "floatBufferViews",
      "target": 34963
    },
    {
      "buffer": 0,
      "byteLength": 912496,
      "byteOffset": 314028,
      "byteStride": 8,
      "name": "floatBufferViews",
      "target": 34962
    },
    {
      "buffer": 0,
      "byteLength": 1368744,
      "byteOffset": 1226524,
      "byteStride": 12,
      "name": "floatBufferViews",
      "target": 34962
    }
  ],
  "buffers": [
    {
      "byteLength": 2595268,
      "uri": "scene.bin"
    }
  ],
  "extensionsUsed": [
    "KHR_materials_specular"
  ],
  "images": [
    {
      "uri": "textures/M_Building_baseColor.jpeg"
    },
    {
      "uri": "textures/M_Building_metallicRoughness.png"
    },
    {
      "uri": "textures/M_Vegetation_baseColor.jpeg"
    },
    {
      "uri": "textures/M_Vegetation_WithAlpha_baseColor.png"
    }
  ],
  "materials": [
    {
      "doubleSided": true,
      "extensions": {
        "KHR_materials_specular": {
          "specularColorFactor": [
            1.0,
            1.0,
            1.0
          ],
          "specularFactor": 0.0
        }
      },
      "name": "M_Building",
      "occlusionTexture": {
        "index": 1,
        "texCoord": 1
      },
      "pbrMetallicRoughness": {
        "baseColorTexture": {
          "index": 0
        },
        "metallicFactor": 0.0,
        "metallicRoughnessTexture": {
          "index": 1,
          "texCoord": 1
        }
      }
    },
    {
      "doubleSided": true,
      "extensions": {
        "KHR_materials_specular": {
          "specularColorFactor": [
            1.0,
            1.0,
            1.0
          ],
          "specularFactor": 0.0
        }
      },
      "name": "M_Vegetation",
      "occlusionTexture": {
        "index": 1,
        "texCoord": 1
      },
      "pbrMetallicRoughness": {
        "baseColorTexture": {
          "index": 2
        },
        "metallicFactor": 0.0,
        "metallicRoughnessTexture": {
          "index": 1,
          "texCoord": 1
        }
      }
    },
    {
      "alphaCutoff": 0.8030500664,
      "alphaMode": "MASK",
      "doubleSided": true,
      "emissiveFactor": [
        0.2895246919,
        0.2895246919,
        0.2895246919
      ],
      "emissiveTexture": {
        "index": 2
      },
      "extensions": {
        "KHR_materials_specular": {
          "specularColorFactor": [
            1.0,
            1.0,
            1.0
          ],
          "specularFactor": 0.0
        }
      },
      "name": "M_Vegetation_WithAlpha",
      "occlusionTexture": {
        "index": 1,
        "texCoord": 1
      },
      "pbrMetallicRoughness": {
        "baseColorTexture": {
          "index": 3
        },
        "metallicFactor": 0.0,
        "metallicRoughnessTexture": {
          "index": 1,
          "texCoord": 1
        }
      }
    }
  ],
  "meshes": [
    {
      "name": "Plane.096_M_Building_0",
      "primitives": [
        {
          "attributes": {
            "NORMAL": 1,
            "POSITION": 0,
            "TEXCOORD_0": 2,
            "TEXCOORD_1": 3
          },
          "indices": 4,
          "material": 0,
          "mode": 4
        }
      ]
    },
    {
      "name": "Plane.096_M_Vegetation_0",
      "primitives": [
        {
          "attributes": {
            "NORMAL": 6,
            "POSITION": 5,
            "TEXCOORD_0": 7,
            "TEXCOORD_1": 8
          },
          "indices": 9,
          "material": 1,
          "mode": 4
        }
      ]
    },
    {
      "name": "Plane.096_M_Vegetation_WithAlpha_0",
      "primitives": [
        {
          "attributes": {
            "NORMAL": 11,
            "POSITION": 10,
            "TEXCOORD_0": 12,
            "TEXCOORD_1": 13
          },
          "indices": 14,
          "material": 2,
          "mode": 4
        }
      ]
    },
    {
      "name": "Plane.098_M_Vegetation_0",
      "primitives": [
        {
          "attributes": {
            "NORMAL": 16,
            "POSITION": 15,
            "TEXCOORD_0": 17,
            "TEXCOORD_1": 18
          },
          "indices": 19,
          "material": 1,
          "mode": 4
        }
      ]
    },
    {
      "name": "Plane.099_M_Building_0",
      "primitives": [
        {
          "attributes": {
            "NORMAL": 21,
            "POSITION": 20,
            "TEXCOORD_0": 22,
            "TEXCOORD_1": 23
          },
          "indices": 24,
          "material": 0,
          "mode": 4
        }
      ]
    },
    {
      "name": "Plane.100_M_Vegetation_0",
      "primitives": [
        {
          "attributes": {
            "NORMAL": 26,
            "POSITION": 25,
            "TEXCOORD_0": 27,
            "TEXCOORD_1": 28
          },
          "indices": 29,
          "material": 1,
          "mode": 4
        }
      ]
    },
    {
      "name": "Plane.101_M_Building_0",
      "primitives": [
        {
          "attributes": {
            "NORMAL": 31,
            "POSITION": 30,
            "TEXCOORD_0": 32,
            "TEXCOORD_1": 33
          },
          "indices": 34,
          "material": 0,
          "mode": 4
        }
      ]
    },
    {
      "name": "Plane.102_M_Building_0",
      "primitives": [
        {
          "attributes": {
            "NORMAL": 36,
            "POSITION": 35,
            "TEXCOORD_0": 37,
            "TEXCOORD_1": 38
          },
          "indices": 39,
          "material": 0,
          "mode": 4
        }
      ]
    },
    {
      "name": "Plane.103_M_Building_0",
      "primitives": [
        {
          "attributes": {
            "NORMAL": 41,
            "POSITION": 40,
            "TEXCOORD_0": 42,
            "TEXCOORD_1": 43
          },
          "indices": 44,
          "material": 0,
          "mode": 4
        }
      ]
    }
  ],
  "nodes": [
    {
      "children": [
        1
      ],
      "matrix": [
        1.0,
        0.0,
        0.0,
        0.0,
        0.0,
        2.220446049250313e-16,
        -1.0,
        0.0,
        0.0,
        1.0,
        2.220446049250313e-16,
        0.0,
        0.0,
        0.0,
        0.0,
        1.0
      ],
      "name": "Sketchfab_model"
    },
    {
      "children": [
        2
      ],
      "matrix": [
        1.0,
        0.0,
        0.0,
        0.0,
        0.0,
        0.0,
        1.0,
        0.0,
        0.0,
        -1.0,
        0.0,
        0.0,
        0.0,
        0.0,
        0.0,
        1.0
      ],
      "name": "e989cb1b05d743e28b49be0847431232.fbx"
    },
    {
      "children": [
        3,
        7,
        9,
        11,
        13,
        15,
        17
      ],
      "name": "RootNode"
    },
    {
      "children": [
        4,
        5,
        6
      ],
      "matrix": [
        1.0,
        0.0,
        0.0,
        0.0,
        0.0,
        1.0,
        0.0,
        0.0,
        0.0,
        0.0,
        1.0,
        0.0,
        -0.0935521125793457,
        0.8371448516845703,
        -0.9371517896652222,
        1.0
      ],
      "name": "Plane.096"
    },
    {
      "mesh": 0,
      "name": "Plane.096_M_Building_0"
    },
    {
      "mesh": 1,
      "name": "Plane.096_M_Vegetation_0"
    },
    {
      "mesh": 2,
      "name": "Plane.096_M_Vegetation_WithAlpha_0"
    },
    {
      "children": [
        8
      ],
      "matrix": [
        1.0,
        0.0,
        0.0,
        0.0,
        0.0,
        1.0,
        0.0,
        0.0,
        0.0,
        0.0,
        1.0,
        0.0,
        -0.0935521125793457,
        0.8371448516845703,
        -0.9371517896652222,
        1.0
      ],
      "name": "Plane.098"
    },
    {
      "mesh": 3,
      "name": "Plane.098_M_Vegetation_0"
    },
    {
      "children": [
        10
      ],
      "matrix": [
        1.0,
        0.0,
        0.0,
        0.0,
        0.0,
        1.0,
        0.0,
        0.0,
        0.0,
        0.0,
        1.0,
        0.0,
        -0.0935521125793457,
        0.8371448516845703,
        -0.9371517896652222,
        1.0
      ],
      "name": "Plane.099"
    },
    {
      "mesh": 4,
      "name": "Plane.099_M_Building_0"
    },
    {
      "children": [
        12
      ],
      "matrix": [
        1.0,
        0.0,
        0.0,
        0.0,
        0.0,
        1.0,
        0.0,
        0.0,
        0.0,
        0.0,
        1.0,
        0.0,
        -0.0935521125793457,
        0.8371448516845703,
        -0.9371517896652222,
        1.0
      ],
      "name": "Plane.100"
    },
    {
      "mesh": 5,
      "name": "Plane.100_M_Vegetation_0"
    },
    {
      "children": [
        14
      ],
      "matrix": [
        1.0,
        0.0,
        0.0,
        0.0,
        0.0,
        1.0,
        0.0,
        0.0,
        0.0,
        0.0,
        1.0,
        0.0,
        -0.0935521125793457,
        0.8371448516845703,
        -0.9371517896652222,
        1.0
      ],
      "name": "Plane.101"
    },
    {
      "mesh": 6,
      "name": "Plane.101_M_Building_0"
    },
    {
      "children": [
        16
      ],
      "matrix": [
        1.0,
        0.0,
        0.0,
        0.0,
        0.0,
        1.0,
        0.0,
        0.0,
        0.0,
        0.0,
        1.0,
        0.0,
        -0.0935521125793457,
        0.8371448516845703,
        -0.9371517896652222,
        1.0
      ],
      "name": "Plane.102"
    },
    {
      "mesh": 7,
      "name": "Plane.102_M_Building_0"
    },
    {
      "children": [
        18
      ],
      "matrix": [
        1.0,
        0.0,
        0.0,
        0.0,
        0.0,
        1.0,
        0.0,
        0.0,
        0.0,
        0.0,
        1.0,
        0.0,
        -0.0935521125793457,
        0.8371448516845703,
        -0.9371517896652222,
        1.0
      ],
      "name": "Plane.103"
    },
    {
      "mesh": 8,
      "name": "Plane.103_M_Building_0"
    }
  ],
  "samplers": [
    {
      "magFilter": 9729,
      "minFilter": 9987,
      "wrapS": 10497,
      "wrapT": 10497
    }
  ],
  "scene": 0,
  "scenes": [
    {
      "name": "Sketchfab_Scene",
      "nodes": [
        0
      ]
    }
  ],
  "textures": [
    {
      "sampler": 0,
      "source": 0
    },
    {
      "sampler": 0,
      "source": 1
    },
    {
      "sampler": 0,
      "source": 2
    },
    {
      "sampler": 0,
      "source": 3
    }
  ]
}
